<?xml version="1.0" encoding="utf-8"?>
<!-- Generator: Adobe Illustrator 24.2.3, SVG Export Plug-In . SVG Version: 6.00 Build 0)  -->
<svg version="1.1" id="Layer_1" xmlns="http://www.w3.org/2000/svg" xmlns:xlink="http://www.w3.org/1999/xlink" x="0px" y="0px"
	 viewBox="0 0 1024 240" style="enable-background:new 0 0 1024 240;" xml:space="preserve">
<style type="text/css">
	.st0{fill:#BC865E;}
</style>
<g>
	<g>
		<path class="st0" d="M496.66,198.21c-9.67-11.25-22.59-19.17-36.56-23.93c-6.96-2.5-14.19-4.26-21.5-5.69
			c-3.66-0.69-7.34-1.29-11.04-1.83c-3.7-0.56-7.41-1.04-11.14-1.48c-7.43-0.88-14.99-1.73-22.41-2.52
			c-7.43-0.74-14.9-1.18-22.39-1.31c-14.97-0.21-29.99,0.66-44.87,2.65c-7.44,0.96-14.85,2.23-22.19,3.84
			c-7.35,1.58-14.62,3.43-21.99,5.15c-7.37,1.7-14.86,3.17-22.49,4.13c-7.63,0.91-15.39,1.37-23.18,0.93
			c-7.79-0.39-15.6-1.6-23.14-3.89c-3.78-1.09-7.49-2.61-11.04-4.49c-3.54-1.9-6.93-4.23-9.88-7.11
			c-5.93-5.75-9.92-13.87-9.66-22.51c0.08-2.15,0.43-4.29,1.13-6.38c0.69-2.08,1.72-4.05,3.01-5.81c2.59-3.51,6.13-6.13,9.95-7.77
			c3.83-1.65,7.95-2.44,12.04-2.42c4.09,0.01,8.22,0.84,11.96,2.64c1.86,0.91,3.64,2.02,5.22,3.37c0.78,0.68,1.48,1.42,2.21,2.13
			c0.71,0.73,1.31,1.56,1.97,2.34c2.46,3.26,4.18,7,5.24,10.88c2.11,7.76,1.92,16.17-0.87,23.92c-0.38,0.95-0.71,1.94-1.2,2.85
			l-0.69,1.39l-0.35,0.7l-0.41,0.66c-1.08,1.8-2.28,3.47-3.61,5.03c-2.69,3.1-5.78,5.85-9.21,8.03
			c-13.8,8.75-30.75,10.36-45.96,7.45c-7.67-1.41-15.04-3.81-22.17-6.59c-7.13-2.79-14.01-6.05-20.86-9.23
			c-6.83-3.21-13.61-6.45-20.56-9.14c-1.74-0.67-3.48-1.3-5.23-1.92c-1.76-0.58-3.52-1.14-5.29-1.66c-3.54-1.03-7.11-1.91-10.72-2.6
			c-7.21-1.4-14.5-2.16-21.81-2.45c-7.3-0.24-14.68-0.05-21.63,1.42c-1.74,0.37-3.45,0.8-5.12,1.35c-1.68,0.51-3.3,1.16-4.87,1.87
			c-3.12,1.46-6.09,3.33-8.47,5.64c-2.45,2.3-4.41,5.15-5.87,8.18c-1.36,3.07-2.24,6.39-2.12,9.67c0.03,3.28,1.01,6.53,2.83,9.06
			c0.24,0.32,0.52,0.61,0.77,0.92c0.25,0.31,0.52,0.62,0.83,0.88l0.9,0.83l0.99,0.73l0.49,0.37l0.54,0.31l1.07,0.64
			c0.77,0.32,1.5,0.76,2.3,0.98c1.57,0.61,3.24,0.85,4.89,0.97c1.66,0.06,3.3-0.18,4.85-0.67c1.5-0.59,2.94-1.37,4.1-2.53
			c0.35-0.28,0.52-0.49,0.67-0.71c0.15-0.21,0.13-0.34,0.17-0.18c0.01,0.03,0.03,0.07,0.05,0.1c0-0.02,0.06,0.1,0.12,0.15
			c0.07,0.05,0.14,0.13,0.23,0.17c0.37,0.17,0.53,0.09,0.57,0.07c0.05-0.04,0.05-0.01,0.2-0.21c0.02-0.04,0.1-0.16,0.12-0.26
			c0.05-0.15,0.06-0.3,0.04-0.51c-0.04-0.2-0.09-0.35-0.2-0.48c-0.08-0.11-0.13-0.16-0.21-0.21c0.66,0.5,0.79,1.43,0.3,2.09
			c-0.5,0.66-1.43,0.79-2.09,0.3c-0.17-0.14-0.31-0.26-0.46-0.46c-0.16-0.24-0.28-0.48-0.32-0.8c-0.06-0.32-0.01-0.58,0.06-0.85
			c0.07-0.21,0.18-0.44,0.28-0.57c0.43-0.58,0.85-0.81,1.35-1c0.48-0.15,1.15-0.28,1.94,0.14c0.18,0.11,0.37,0.24,0.5,0.39
			c0.14,0.14,0.29,0.34,0.33,0.44c0.14,0.23,0.25,0.49,0.31,0.75c0.26,1.1-0.09,1.93-0.39,2.53c-0.31,0.6-0.74,1.13-1.1,1.48
			l-1.13,1.15c-0.39,0.37-0.85,0.65-1.28,0.98l-0.66,0.47c-0.23,0.14-0.47,0.25-0.71,0.38c-0.48,0.24-0.96,0.5-1.45,0.72
			c-2,0.78-4.12,1.21-6.23,1.27c-2.1-0.01-4.23-0.2-6.23-0.83c-4.05-1.09-7.76-3.47-10.58-6.79c-0.63-0.89-1.35-1.73-1.83-2.73
			c-0.25-0.49-0.55-0.97-0.76-1.47l-0.59-1.5c-0.7-2.02-1.19-4.14-1.27-6.27c-0.3-4.28,0.64-8.48,2.2-12.34
			c1.65-3.83,3.93-7.38,6.9-10.33c5.97-5.98,13.73-9.34,21.48-11.11c3.89-0.89,7.82-1.41,11.72-1.69c3.91-0.28,7.78-0.37,11.67-0.21
			c7.77,0.23,15.5,1.44,23,3.39c3.75,0.97,7.45,2.14,11.08,3.46c3.62,1.33,7.17,2.78,10.68,4.29c7.01,3.03,13.87,6.25,20.7,9.43
			c6.82,3.2,13.65,6.25,20.63,8.82c6.96,2.58,14.08,4.62,21.29,5.75c7.21,1.14,14.49,1.36,21.53,0.14
			c7.04-1.18,13.82-3.78,19.61-7.65c5.78-3.88,10.6-9.06,13.46-15.25c2.93-6.18,4.11-13.56,2.5-20.43c-0.8-3.42-2.29-6.66-4.39-9.42
			c-0.57-0.65-1.06-1.37-1.68-1.97c-0.63-0.58-1.24-1.21-1.89-1.76c-1.3-1.07-2.76-1.97-4.32-2.64c-6.26-2.72-13.86-2.31-19.92,0.66
			c-3.02,1.49-5.68,3.6-7.48,6.24c-1.82,2.62-2.68,5.75-2.77,9c-0.09,3.25,0.71,6.56,2.1,9.61c1.41,3.06,3.4,5.79,5.89,8.15
			c4.98,4.72,11.52,7.89,18.42,9.86c6.91,2.07,14.16,2.97,21.44,3.04c7.29,0.03,14.62-0.75,21.94-1.76
			c7.33-0.99,14.69-2.24,22.13-3.38c14.9-2.35,30.06-4.01,45.07-5.86l5.65-0.63l5.66-0.54c3.78-0.34,7.55-0.68,11.34-0.91
			c7.57-0.51,15.16-0.86,22.76-0.88c7.6,0,15.21,0.25,22.8,0.85c3.82,0.29,7.55,0.67,11.31,1.05c3.76,0.38,7.52,0.76,11.28,1.22
			c3.76,0.45,7.53,0.94,11.29,1.51c3.76,0.59,7.51,1.26,11.25,2.02c7.47,1.57,14.91,3.49,22.12,6.19c3.6,1.37,7.13,2.91,10.57,4.66
			c3.44,1.76,6.76,3.74,9.95,5.93c6.37,4.38,12.04,9.77,16.76,15.85c0.51,0.65,0.39,1.59-0.26,2.1
			C498.09,198.91,497.18,198.81,496.66,198.21z"/>
	</g>
	<g>
		<path class="st0" d="M527.65,196.08c6.29-3.11,12.45-6.45,18.43-10.08c6-3.59,11.81-7.5,17.41-11.67
			c11.27-8.23,21.75-17.61,31.1-27.86c4.66-5.14,8.9-10.62,12.62-16.41c3.66-5.82,6.74-12.01,8.77-18.55
			c0.28-0.81,0.51-1.63,0.72-2.46c0.21-0.83,0.46-1.65,0.64-2.48c0.32-1.67,0.72-3.32,0.89-5.02c0.49-3.37,0.62-6.79,0.46-10.19
			l-0.17-2.55c-0.08-0.85-0.22-1.69-0.32-2.53l-0.17-1.27c-0.07-0.42-0.17-0.83-0.25-1.25l-0.51-2.5c-0.88-3.28-1.93-6.52-3.41-9.57
			c-2.92-6.08-7.23-11.54-12.79-15.13c-2.7-1.89-5.72-3.26-8.81-4.37c-3.11-1.08-6.35-1.76-9.62-2.26
			c-6.56-0.91-13.29-0.87-19.95-0.13c-6.65,0.73-13.25,2.2-19.49,4.65c-6.24,2.43-12.04,5.96-17.01,10.39
			c-4.92,4.45-9.03,9.8-11.88,15.82c-2.92,5.97-4.58,12.54-4.83,19.13c-0.11,3.3,0.15,6.59,0.79,9.82c0.31,1.69,0.64,3.07,1.28,4.15
			c0.3,0.53,0.64,0.94,0.89,1.11c0.25,0.2,0.37,0.22,0.63,0.23c0.21-0.01,0.35-0.02,0.64-0.32c0.28-0.28,0.58-0.8,0.81-1.41
			c0.23-0.61,0.4-1.32,0.51-2.04c0.11-0.75,0.16-1.4,0.12-2.31c-0.02-3.43-0.17-6.87-0.61-10.28c-0.86-6.82-2.59-13.56-5.3-19.88
			c-2.71-6.32-6.65-12.03-11.14-17.03c-4.48-5.01-9.49-9.46-15.14-12.95c-5.57-3.42-11.91-5.74-18.5-6.71
			c-6.59-0.96-13.38-0.68-19.87,0.86c-6.46,1.58-12.66,4.43-17.71,8.7c-2.52,2.13-4.77,4.58-6.65,7.29
			c-1.84,2.76-3.38,5.73-4.53,8.87c-1.12,3.15-1.93,6.42-2.43,9.76c-0.43,3.35-0.58,6.75-0.45,10.15
			c0.32,6.81,1.79,13.55,3.81,20.07c4.27,13.03,10.14,25.54,17.76,37c7.81,11.31,17.13,21.67,27.99,30.24
			c10.73,8.74,22.94,15.63,35.92,20.75l0.03,0.01c0.77,0.3,1.15,1.17,0.84,1.94c-0.29,0.73-1.09,1.1-1.82,0.88
			c-13.68-4.13-26.8-10.53-38.39-19.11c-11.7-8.44-21.85-18.99-30.31-30.74l-3-4.53c-0.5-0.76-1.01-1.51-1.49-2.27l-1.37-2.35
			c-0.9-1.57-1.85-3.12-2.71-4.72c-0.82-1.62-1.63-3.24-2.43-4.87c-0.84-1.61-1.52-3.3-2.21-4.98c-0.65-1.69-1.41-3.35-1.98-5.07
			c-1.12-3.46-2.3-6.88-3.12-10.44c-0.84-3.55-1.49-7.14-1.97-10.75c-0.19-1.82-0.41-3.62-0.5-5.45c-0.17-1.82-0.17-3.65-0.23-5.47
			c0-3.66,0.22-7.33,0.73-10.98c0.54-3.65,1.42-7.26,2.66-10.76c1.26-3.51,3.02-6.82,5.02-9.98c2.07-3.13,4.58-5.99,7.4-8.47
			c5.66-4.96,12.51-8.41,19.69-10.37c7.21-1.92,14.76-2.4,22.17-1.5c3.7,0.46,7.37,1.27,10.94,2.43c3.57,1.15,7.05,2.67,10.31,4.61
			c6.42,3.86,12.06,8.98,16.45,14.94c4.37,5.98,7.65,12.59,10.24,19.35c2.63,6.76,4.54,13.76,5.65,20.92
			c0.61,3.57,0.92,7.19,1.08,10.81c0.07,0.85,0.07,1.97-0.03,2.97c-0.1,1.03-0.28,2.06-0.62,3.12c-0.34,1.05-0.82,2.15-1.7,3.21
			c-0.44,0.53-1.01,1.02-1.67,1.42c-0.68,0.38-1.45,0.67-2.21,0.77c-1.49,0.25-3.2-0.16-4.39-0.98c-1.23-0.8-2.01-1.81-2.62-2.79
			c-1.23-1.95-1.75-4.05-2.14-5.81c-0.85-3.67-1.33-7.45-1.22-11.21c0.18-7.52,1.98-14.95,5.17-21.7
			c3.12-6.79,7.7-12.91,13.19-17.98c2.75-2.52,5.76-4.74,8.86-6.79c3.1-2.05,6.4-3.8,9.79-5.31c3.38-1.52,6.87-2.84,10.44-3.84
			c3.58-0.97,7.21-1.77,10.9-2.22c7.35-0.89,14.89-0.74,22.24,0.88c7.31,1.66,14.45,4.78,20.25,9.64c1.51,1.13,2.8,2.51,4.14,3.81
			c0.66,0.67,1.24,1.4,1.85,2.1l0.91,1.06l0.82,1.13c2.31,2.92,4.05,6.21,5.66,9.51c1.56,3.34,2.66,6.85,3.56,10.39
			c0.78,3.57,1.4,7.18,1.56,10.83c0.09,0.91,0.07,1.82,0.08,2.73c0,0.91,0.06,1.83,0,2.74c-0.09,1.82-0.15,3.65-0.4,5.46
			c-0.16,1.82-0.54,3.62-0.86,5.42c-0.18,0.9-0.42,1.77-0.63,2.66c-0.21,0.89-0.44,1.77-0.72,2.63c-0.98,3.51-2.33,6.89-3.78,10.22
			c-1.49,3.31-3.21,6.51-5.05,9.62c-3.75,6.19-8.14,11.95-12.95,17.29c-19.41,21.09-43.3,37.83-69.54,48.88
			c-0.76,0.32-1.64-0.04-1.96-0.8c-0.31-0.73,0.01-1.57,0.71-1.92L527.65,196.08z"/>
	</g>
	<g>
		<path class="st0" d="M525.02,196.32c4.72-6.08,10.39-11.47,16.76-15.85c3.18-2.19,6.51-4.17,9.95-5.93
			c3.44-1.75,6.98-3.29,10.57-4.66c7.21-2.7,14.65-4.63,22.12-6.19c3.74-0.76,7.49-1.43,11.25-2.02c3.76-0.58,7.53-1.06,11.29-1.51
			c3.76-0.46,7.53-0.84,11.28-1.22c3.76-0.38,7.49-0.76,11.31-1.05c7.59-0.6,15.2-0.86,22.8-0.85c7.6,0.02,15.19,0.37,22.76,0.88
			c3.79,0.23,7.56,0.57,11.34,0.91l5.66,0.54l5.65,0.63c15.01,1.85,30.17,3.52,45.07,5.86c7.44,1.14,14.8,2.39,22.13,3.38
			c7.32,1.01,14.65,1.79,21.94,1.76c7.28-0.07,14.53-0.97,21.44-3.04c6.9-1.97,13.44-5.14,18.42-9.86c2.49-2.36,4.48-5.09,5.89-8.15
			c1.4-3.04,2.19-6.36,2.1-9.61c-0.1-3.26-0.95-6.38-2.77-9c-1.79-2.65-4.46-4.75-7.48-6.24c-6.05-2.97-13.66-3.38-19.92-0.66
			c-1.56,0.67-3.02,1.58-4.32,2.64c-0.65,0.55-1.25,1.18-1.89,1.76c-0.62,0.6-1.11,1.32-1.68,1.97c-2.1,2.76-3.59,6-4.39,9.42
			c-1.61,6.87-0.43,14.25,2.5,20.43c2.86,6.19,7.68,11.37,13.46,15.25c5.79,3.87,12.57,6.46,19.61,7.65
			c7.04,1.22,14.32,1,21.53-0.14c7.21-1.13,14.33-3.17,21.29-5.75c6.97-2.57,13.81-5.62,20.63-8.82c6.83-3.17,13.69-6.4,20.7-9.43
			c3.51-1.51,7.06-2.96,10.68-4.29c3.62-1.32,7.32-2.49,11.08-3.46c7.5-1.95,15.23-3.16,23-3.39c3.89-0.15,7.76-0.07,11.67,0.21
			c3.9,0.28,7.83,0.8,11.72,1.69c7.75,1.77,15.52,5.13,21.48,11.11c2.97,2.95,5.26,6.51,6.9,10.33c1.55,3.86,2.49,8.06,2.2,12.34
			c-0.08,2.13-0.57,4.25-1.27,6.27l-0.59,1.5c-0.21,0.5-0.5,0.98-0.76,1.47c-0.48,1.01-1.2,1.84-1.83,2.73
			c-2.81,3.32-6.52,5.7-10.58,6.79c-2,0.63-4.13,0.83-6.23,0.83c-2.12-0.05-4.23-0.49-6.23-1.27c-0.49-0.22-0.97-0.48-1.45-0.72
			c-0.24-0.13-0.48-0.24-0.71-0.38l-0.66-0.47c-0.43-0.33-0.89-0.61-1.28-0.98l-1.13-1.15c-0.36-0.34-0.78-0.87-1.1-1.48
			c-0.3-0.6-0.64-1.43-0.39-2.53c0.06-0.26,0.18-0.52,0.31-0.75c0.05-0.09,0.2-0.29,0.33-0.44c0.13-0.15,0.32-0.28,0.5-0.39
			c0.79-0.42,1.46-0.29,1.94-0.14c0.5,0.19,0.92,0.42,1.35,1c0.1,0.13,0.21,0.36,0.28,0.57c0.07,0.27,0.12,0.53,0.06,0.85
			c-0.04,0.32-0.17,0.57-0.32,0.8c-0.15,0.2-0.29,0.33-0.46,0.46c-0.66,0.5-1.6,0.36-2.09-0.3s-0.36-1.6,0.3-2.09
			c-0.09,0.05-0.13,0.1-0.21,0.21c-0.1,0.13-0.15,0.28-0.2,0.48c-0.02,0.21-0.02,0.35,0.04,0.51c0.02,0.1,0.09,0.22,0.12,0.26
			c0.15,0.2,0.15,0.17,0.2,0.21c0.04,0.01,0.2,0.1,0.57-0.07c0.09-0.04,0.16-0.12,0.23-0.17c0.06-0.05,0.13-0.17,0.12-0.15
			c0.02-0.03,0.04-0.07,0.05-0.1c0.04-0.17,0.02-0.04,0.17,0.18c0.15,0.22,0.32,0.43,0.67,0.71c1.16,1.16,2.6,1.94,4.1,2.53
			c1.56,0.48,3.19,0.73,4.85,0.67c1.65-0.12,3.32-0.36,4.89-0.97c0.81-0.22,1.54-0.66,2.3-0.98l1.07-0.64l0.54-0.31l0.49-0.37
			l0.99-0.73l0.9-0.83c0.32-0.26,0.58-0.56,0.83-0.88c0.26-0.31,0.53-0.6,0.77-0.92c1.83-2.53,2.8-5.78,2.83-9.06
			c0.12-3.28-0.75-6.6-2.12-9.67c-1.46-3.03-3.42-5.88-5.87-8.18c-2.38-2.31-5.35-4.18-8.47-5.64c-1.58-0.71-3.19-1.36-4.87-1.87
			c-1.66-0.55-3.38-0.98-5.12-1.35c-6.95-1.48-14.32-1.66-21.63-1.42c-7.3,0.29-14.6,1.05-21.81,2.45
			c-3.61,0.68-7.18,1.56-10.72,2.6c-1.77,0.52-3.53,1.08-5.29,1.66c-1.75,0.62-3.49,1.25-5.23,1.92
			c-6.95,2.69-13.73,5.93-20.56,9.14c-6.85,3.18-13.73,6.44-20.86,9.23c-7.13,2.78-14.5,5.18-22.17,6.59
			c-15.21,2.91-32.16,1.31-45.96-7.45c-3.43-2.18-6.52-4.93-9.21-8.03c-1.33-1.56-2.53-3.23-3.61-5.03L791.2,168l-0.35-0.7
			l-0.69-1.39c-0.49-0.91-0.82-1.9-1.2-2.85c-2.79-7.75-2.98-16.16-0.87-23.92c1.06-3.88,2.78-7.63,5.24-10.88
			c0.66-0.78,1.26-1.61,1.97-2.34c0.74-0.71,1.43-1.45,2.21-2.13c1.59-1.35,3.36-2.46,5.22-3.37c3.74-1.8,7.86-2.63,11.96-2.64
			c4.1-0.01,8.21,0.77,12.04,2.42c3.83,1.64,7.37,4.25,9.95,7.77c1.29,1.75,2.32,3.72,3.01,5.81c0.7,2.08,1.05,4.22,1.13,6.38
			c0.26,8.64-3.73,16.77-9.66,22.51c-2.95,2.89-6.34,5.22-9.88,7.11c-3.55,1.88-7.26,3.4-11.04,4.49
			c-7.54,2.29-15.36,3.5-23.14,3.89c-7.79,0.44-15.56-0.01-23.18-0.93c-7.63-0.96-15.11-2.43-22.49-4.13
			c-7.38-1.72-14.64-3.57-21.99-5.15c-7.34-1.61-14.75-2.87-22.19-3.84c-14.88-1.99-29.9-2.86-44.87-2.65
			c-7.49,0.13-14.96,0.57-22.39,1.31c-7.42,0.78-14.98,1.64-22.41,2.52c-3.73,0.45-7.44,0.93-11.14,1.48
			c-3.7,0.53-7.38,1.13-11.04,1.83c-7.31,1.42-14.54,3.19-21.5,5.69c-13.97,4.75-26.89,12.68-36.56,23.93
			c-0.54,0.63-1.48,0.7-2.11,0.17C524.62,197.86,524.54,196.95,525.02,196.32z"/>
	</g>
</g>
</svg>
