<?xml version="1.0" encoding="utf-8"?>
<!-- Generator: Adobe Illustrator 24.2.3, SVG Export Plug-In . SVG Version: 6.00 Build 0)  -->
<svg version="1.1" id="Layer_1" xmlns="http://www.w3.org/2000/svg" xmlns:xlink="http://www.w3.org/1999/xlink" x="0px" y="0px"
	 viewBox="0 0 1024 240" style="enable-background:new 0 0 1024 240;" xml:space="preserve">
<style type="text/css">
	.st0{fill:#FECCCB;}
</style>
<g>
	<g>
		<path class="st0" d="M497.49,197.53c-9.56-11.63-22.7-19.87-36.81-24.85c-7.05-2.57-14.36-4.38-21.73-5.85
			c-7.38-1.42-14.83-2.49-22.31-3.4c-3.74-0.45-7.48-0.87-11.23-1.27c-3.75-0.4-7.5-0.82-11.24-1.15
			c-7.49-0.68-15.01-1.05-22.54-1.11c-15.05-0.08-30.11,0.93-45.06,2.76c-7.47,0.94-14.92,2.09-22.33,3.44
			c-7.42,1.33-14.78,2.91-22.17,4.41c-14.76,2.99-29.84,5.61-45.1,5.11c-7.61-0.28-15.22-1.39-22.53-3.6
			c-3.67-1.04-7.24-2.49-10.64-4.28c-3.39-1.8-6.6-4-9.38-6.7c-2.79-2.68-5.11-5.9-6.69-9.45c-1.59-3.54-2.5-7.44-2.37-11.36
			c0.1-3.91,1.33-7.85,3.66-11.04c2.3-3.2,5.53-5.62,9.07-7.21c3.54-1.6,7.4-2.41,11.26-2.45c3.86-0.05,7.76,0.68,11.28,2.32
			c1.76,0.82,3.42,1.86,4.91,3.11c0.73,0.63,1.4,1.34,2.1,2c0.68,0.68,1.24,1.48,1.86,2.21c2.32,3.09,3.95,6.66,4.93,10.37
			c1.91,7.45,1.38,15.48-1.47,22.67c-1.43,3.58-3.5,6.95-6.04,9.86c-2.54,2.92-5.5,5.45-8.71,7.57c-6.45,4.24-13.88,6.78-21.43,7.95
			c-7.58,1.19-15.31,0.83-22.8-0.48c-7.51-1.31-14.79-3.58-21.86-6.28c-7.08-2.7-13.95-5.87-20.78-9.08
			c-13.61-6.44-27.35-12.88-42.03-16c-7.31-1.58-14.76-2.54-22.24-2.79c-7.46-0.23-15,0-22.27,1.56c-3.63,0.78-7.18,1.91-10.51,3.49
			c-3.32,1.59-6.46,3.61-9.07,6.18c-2.65,2.54-4.72,5.64-6.25,8.97c-1.43,3.36-2.33,7.01-2.14,10.65c0.11,3.63,1.27,7.25,3.44,10.11
			c0.28,0.35,0.6,0.68,0.89,1.02c0.29,0.35,0.6,0.67,0.96,0.96l1.02,0.9l1.12,0.78l0.56,0.39l0.6,0.33l1.19,0.66
			c0.85,0.33,1.65,0.78,2.54,1.01c1.72,0.62,3.56,0.84,5.37,0.92c1.83,0.02,3.63-0.29,5.35-0.88c0.42-0.17,0.82-0.38,1.23-0.57
			c0.2-0.1,0.42-0.18,0.61-0.3l0.56-0.38c0.37-0.26,0.77-0.48,1.11-0.78l0.99-0.93c0.35-0.3,0.62-0.63,0.82-0.99
			c0.2-0.35,0.31-0.74,0.25-1.03c-0.03-0.15-0.12-0.29-0.15-0.3c-0.04-0.04-0.19-0.05-0.33,0c-0.14,0.04-0.3,0.14-0.35,0.23
			c-0.03,0.04-0.03,0.05-0.02,0.02c-0.02-0.03-0.01-0.02,0.02,0.01l0.08,0.11c0.14,0.18,0.1,0.44-0.08,0.58
			c-0.16,0.12-0.37,0.11-0.51-0.01c-0.15-0.12-0.32-0.29-0.35-0.57c-0.04-0.27,0.06-0.49,0.16-0.64c0.22-0.3,0.49-0.46,0.79-0.56
			c0.29-0.09,0.67-0.14,1.04,0.06c0.18,0.1,0.33,0.27,0.41,0.41c0.08,0.14,0.15,0.29,0.18,0.45c0.15,0.64-0.07,1.22-0.31,1.68
			c-0.25,0.46-0.59,0.88-0.95,1.2l-1.05,1.02c-0.36,0.33-0.79,0.58-1.18,0.87l-0.6,0.42c-0.21,0.13-0.44,0.22-0.65,0.33
			c-0.44,0.21-0.88,0.44-1.32,0.64c-1.84,0.67-3.78,1.04-5.73,1.05c-1.94-0.05-3.9-0.26-5.75-0.88c-3.74-1.08-7.12-3.36-9.61-6.39
			c-2.42-3.13-3.69-7.03-3.84-10.92c-0.23-3.91,0.69-7.79,2.18-11.36c1.58-3.53,3.75-6.83,6.52-9.54
			c5.55-5.51,12.94-8.63,20.37-10.31c3.74-0.84,7.54-1.33,11.34-1.59c3.8-0.26,7.61-0.32,11.41-0.17c3.8,0.14,7.59,0.46,11.36,0.96
			c3.77,0.51,7.51,1.22,11.21,2.09c7.41,1.71,14.59,4.29,21.58,7.17c6.99,2.91,13.82,6.15,20.66,9.32
			c6.83,3.18,13.68,6.32,20.71,8.97c7.02,2.67,14.23,4.83,21.6,6.07c7.36,1.23,14.9,1.52,22.24,0.32c7.33-1.18,14.45-3.75,20.64-7.8
			c3.08-2.03,5.9-4.45,8.31-7.23c2.44-2.76,4.44-5.86,5.86-9.26c2.87-6.74,3.71-14.49,1.91-21.68c-0.88-3.59-2.46-7.01-4.7-9.93
			c-0.6-0.7-1.14-1.45-1.79-2.1c-0.67-0.63-1.31-1.3-2-1.89c-1.4-1.17-2.97-2.14-4.64-2.9c-6.7-3.03-14.74-2.75-21.38,0.31
			c-3.31,1.54-6.29,3.84-8.37,6.8c-2.1,2.94-3.15,6.53-3.26,10.15c-0.11,3.63,0.75,7.27,2.25,10.59c1.51,3.33,3.68,6.34,6.34,8.88
			c5.33,5.09,12.2,8.41,19.32,10.48c7.13,2.15,14.59,3.15,22.05,3.33c7.47,0.2,14.95-0.48,22.39-1.44
			c7.44-0.98,14.85-2.29,22.26-3.65c14.82-2.77,29.76-5.18,44.75-7c14.99-1.86,30.09-2.9,45.21-2.84
			c7.56,0.06,15.12,0.39,22.65,1.05c3.77,0.32,7.52,0.73,11.27,1.12c3.75,0.39,7.51,0.79,11.26,1.24
			c14.98,1.74,30.03,4.28,44.3,9.48c3.56,1.31,7.06,2.79,10.46,4.47c3.4,1.69,6.69,3.6,9.84,5.71c6.33,4.21,11.94,9.45,16.73,15.33
			c0.15,0.18,0.12,0.45-0.06,0.6C497.91,197.74,497.64,197.71,497.49,197.53z"/>
	</g>
	<g>
		<path class="st0" d="M528.09,197.06c25.53-11.89,48.88-28.58,67.88-49.34c4.72-5.2,9.02-10.78,12.75-16.72
			c1.82-2.99,3.53-6.06,5.01-9.24c1.44-3.19,2.79-6.43,3.76-9.79c0.28-0.83,0.51-1.67,0.71-2.52c0.21-0.85,0.45-1.69,0.63-2.54
			c0.32-1.72,0.71-3.42,0.87-5.16c0.48-3.46,0.55-6.97,0.39-10.46c-0.14-3.5-0.73-6.95-1.47-10.36c-0.88-3.38-1.94-6.72-3.44-9.87
			c-1.51-3.13-3.27-6.18-5.5-8.85l-0.8-1.03L608,60.23c-0.6-0.63-1.16-1.29-1.79-1.88c-1.3-1.15-2.56-2.34-4.01-3.3
			c-2.77-2.08-5.87-3.68-9.08-4.97c-3.23-1.26-6.59-2.13-10-2.75c-6.84-1.18-13.87-1.19-20.77-0.4c-3.45,0.42-6.88,1.02-10.26,1.87
			c-3.37,0.85-6.68,1.97-9.89,3.3c-6.44,2.63-12.43,6.36-17.61,10.99c-5.13,4.67-9.4,10.3-12.35,16.59
			c-3.02,6.25-4.73,13.13-4.95,20.06c-0.11,3.46,0.23,6.93,0.94,10.32c0.34,1.71,0.74,3.36,1.59,4.75c0.8,1.4,2.08,2.43,3.51,2.21
			c1.41-0.11,2.42-1.52,2.94-3.05c0.53-1.57,0.72-3.25,0.63-4.98c-0.08-3.5-0.3-7-0.81-10.47c-0.98-6.93-2.7-13.79-5.41-20.25
			c-0.68-1.61-1.45-3.19-2.18-4.78c-0.86-1.52-1.65-3.09-2.56-4.58c-1.84-2.97-3.8-5.87-6.07-8.51l-1.67-2.01l-1.81-1.88
			c-0.62-0.61-1.17-1.29-1.84-1.85l-1.93-1.75l-0.96-0.88l-1.03-0.8l-2.05-1.6c-1.39-1.04-2.88-1.93-4.31-2.91
			c-5.93-3.56-12.62-5.85-19.5-6.82c-6.88-0.94-13.95-0.59-20.69,1.09c-6.72,1.72-13.16,4.78-18.42,9.31
			c-2.63,2.26-4.96,4.86-6.91,7.72c-1.89,2.9-3.52,5.99-4.71,9.26c-1.16,3.28-2.01,6.66-2.52,10.11c-0.46,3.46-0.62,6.95-0.54,10.44
			c0.13,3.49,0.48,6.98,1.06,10.43c0.61,3.44,1.38,6.86,2.34,10.23c3.94,13.44,10.12,26.19,17.93,37.82
			c15.89,23.11,39.11,41.17,65.66,50.56l0.01,0c0.22,0.08,0.34,0.32,0.26,0.54c-0.08,0.22-0.32,0.33-0.53,0.26
			c-13.42-4.51-26.23-11.05-37.48-19.73c-11.39-8.5-21.23-18.97-29.47-30.55l-2.93-4.46c-0.48-0.75-0.99-1.48-1.45-2.24l-1.33-2.31
			c-0.88-1.55-1.8-3.07-2.64-4.64l-2.37-4.78c-0.82-1.58-1.48-3.23-2.17-4.88c-0.66-1.65-1.43-3.26-2-4.95
			c-1.15-3.37-2.36-6.71-3.26-10.16c-0.91-3.44-1.63-6.94-2.18-10.46c-0.51-3.53-0.82-7.08-0.93-10.65
			c-0.05-3.57,0.16-7.14,0.64-10.68c0.52-3.54,1.37-7.03,2.57-10.41c1.22-3.38,2.89-6.57,4.84-9.59c2.01-2.98,4.43-5.69,7.14-8.04
			c5.45-4.71,12.06-7.94,18.99-9.76c13.87-3.55,29.18-1.75,41.6,5.65c1.49,1.01,3.03,1.93,4.46,3.01l2.12,1.65l1.06,0.83l0.99,0.91
			c1.33,1.2,2.66,2.41,3.84,3.76l1.82,1.97l1.68,2.09c4.42,5.63,7.92,11.92,10.57,18.52c2.63,6.61,4.54,13.5,5.54,20.55
			c0.54,3.52,0.78,7.07,0.89,10.63c0.11,1.78-0.06,3.68-0.65,5.47c-0.3,0.89-0.72,1.78-1.38,2.56c-0.64,0.78-1.64,1.39-2.71,1.51
			c-1.05,0.15-2.18-0.11-3.04-0.71c-0.87-0.58-1.5-1.37-2-2.18c-1.02-1.63-1.47-3.48-1.84-5.21c-0.77-3.51-1.19-7.11-1.07-10.71
			c0.2-7.19,1.95-14.31,5.05-20.78c3.02-6.51,7.43-12.36,12.72-17.21c2.66-2.41,5.55-4.55,8.56-6.49c3.01-1.94,6.2-3.61,9.49-5.01
			c6.58-2.85,13.58-4.68,20.68-5.54l2.67-0.28l2.68-0.17c1.79-0.09,3.58-0.13,5.37-0.08c3.58,0.11,7.16,0.46,10.69,1.14
			c7.03,1.39,13.92,4.1,19.61,8.55c5.76,4.33,10.15,10.27,13.17,16.72c1.54,3.23,2.63,6.64,3.54,10.09
			c0.76,3.48,1.37,7.01,1.52,10.58c0.17,3.56,0.11,7.14-0.38,10.68c-0.17,1.78-0.56,3.52-0.88,5.28c-0.18,0.87-0.43,1.73-0.64,2.59
			c-0.21,0.87-0.44,1.73-0.72,2.57c-0.98,3.43-2.34,6.73-3.79,9.97c-1.49,3.23-3.21,6.35-5.04,9.39
			c-3.75,6.04-8.08,11.7-12.83,16.97c-4.71,5.31-9.85,10.21-15.17,14.88c-5.32,4.68-10.89,9.06-16.65,13.19
			c-11.5,8.26-23.86,15.32-36.78,21.09c-0.21,0.1-0.46,0-0.56-0.21C527.79,197.41,527.89,197.16,528.09,197.06z"/>
	</g>
	<g>
		<path class="st0" d="M525.85,197c4.79-5.88,10.4-11.12,16.73-15.33c3.15-2.11,6.45-4.02,9.84-5.71c3.4-1.68,6.9-3.16,10.46-4.47
			c14.28-5.2,29.32-7.73,44.3-9.48c3.75-0.44,7.5-0.85,11.26-1.24c3.75-0.39,7.5-0.79,11.27-1.12c7.53-0.66,15.09-0.99,22.65-1.05
			c15.12-0.05,30.22,0.98,45.21,2.84c14.99,1.81,29.93,4.23,44.75,7c7.41,1.36,14.82,2.67,22.26,3.65
			c7.43,0.97,14.91,1.64,22.39,1.44c7.46-0.18,14.92-1.18,22.05-3.33c7.12-2.07,13.99-5.39,19.32-10.48
			c2.65-2.54,4.83-5.54,6.34-8.88c1.5-3.32,2.37-6.96,2.25-10.59c-0.1-3.62-1.15-7.21-3.26-10.15c-2.08-2.96-5.05-5.26-8.37-6.8
			c-6.63-3.06-14.68-3.34-21.38-0.31c-1.67,0.76-3.23,1.73-4.64,2.9c-0.7,0.59-1.33,1.26-2,1.89c-0.65,0.65-1.19,1.4-1.79,2.1
			c-2.24,2.92-3.82,6.34-4.7,9.93c-1.8,7.18-0.96,14.93,1.91,21.68c1.42,3.4,3.42,6.5,5.86,9.26c2.41,2.77,5.23,5.19,8.31,7.23
			c6.18,4.05,13.31,6.62,20.64,7.8c7.34,1.21,14.88,0.91,22.24-0.32c7.37-1.24,14.59-3.4,21.6-6.07c7.03-2.66,13.87-5.79,20.71-8.97
			c6.84-3.17,13.67-6.41,20.66-9.32c6.99-2.88,14.17-5.46,21.58-7.17c3.7-0.87,7.44-1.58,11.21-2.09c3.77-0.5,7.56-0.82,11.36-0.96
			c3.8-0.15,7.61-0.09,11.41,0.17c3.8,0.26,7.6,0.75,11.34,1.59c7.43,1.68,14.81,4.8,20.37,10.31c2.78,2.72,4.94,6.01,6.52,9.54
			c1.49,3.57,2.41,7.45,2.18,11.36c-0.15,3.89-1.42,7.79-3.84,10.92c-2.49,3.03-5.87,5.31-9.61,6.39c-1.85,0.62-3.81,0.83-5.75,0.88
			c-1.95-0.01-3.89-0.38-5.73-1.05c-0.45-0.19-0.88-0.42-1.32-0.64c-0.22-0.11-0.44-0.21-0.65-0.33l-0.6-0.42
			c-0.39-0.29-0.82-0.54-1.18-0.87l-1.05-1.02c-0.36-0.32-0.69-0.73-0.95-1.2c-0.25-0.46-0.46-1.04-0.31-1.68
			c0.04-0.16,0.1-0.31,0.18-0.45c0.08-0.14,0.23-0.32,0.41-0.41c0.37-0.21,0.74-0.16,1.04-0.06c0.3,0.11,0.57,0.26,0.79,0.56
			c0.1,0.15,0.21,0.37,0.16,0.64c-0.04,0.27-0.21,0.45-0.35,0.57c-0.18,0.14-0.44,0.12-0.58-0.06c-0.12-0.15-0.12-0.36-0.01-0.51
			l0.08-0.11c0.03-0.03,0.03-0.04,0.02-0.01c0,0.03,0,0.02-0.02-0.02c-0.06-0.08-0.21-0.18-0.35-0.23c-0.15-0.05-0.29-0.04-0.33,0
			c-0.03,0.01-0.12,0.15-0.15,0.3c-0.07,0.29,0.04,0.67,0.25,1.03c0.21,0.36,0.47,0.69,0.82,0.99l0.99,0.93
			c0.34,0.3,0.74,0.52,1.11,0.78l0.56,0.38c0.19,0.11,0.41,0.2,0.61,0.3c0.41,0.19,0.82,0.39,1.23,0.57
			c1.72,0.59,3.53,0.9,5.35,0.88c1.81-0.08,3.65-0.3,5.37-0.92c0.89-0.23,1.7-0.67,2.54-1.01l1.19-0.66l0.6-0.33l0.56-0.39
			l1.12-0.78l1.02-0.9c0.35-0.29,0.66-0.61,0.96-0.96c0.3-0.34,0.61-0.66,0.89-1.02c2.17-2.86,3.33-6.48,3.44-10.11
			c0.19-3.64-0.71-7.29-2.14-10.65c-1.53-3.33-3.6-6.43-6.25-8.97c-2.6-2.57-5.75-4.59-9.07-6.18c-3.33-1.58-6.88-2.71-10.51-3.49
			c-7.27-1.57-14.8-1.79-22.27-1.56c-7.47,0.25-14.92,1.21-22.24,2.79c-14.68,3.12-28.43,9.56-42.03,16
			c-6.83,3.2-13.7,6.37-20.78,9.08c-7.07,2.7-14.35,4.97-21.86,6.28c-7.49,1.31-15.22,1.67-22.8,0.48
			c-7.55-1.17-14.98-3.7-21.43-7.95c-3.22-2.12-6.18-4.65-8.71-7.57c-2.54-2.91-4.61-6.27-6.04-9.86
			c-2.84-7.19-3.38-15.22-1.47-22.67c0.98-3.71,2.61-7.28,4.93-10.37c0.62-0.73,1.18-1.53,1.86-2.21c0.7-0.67,1.36-1.37,2.1-2
			c1.49-1.25,3.15-2.3,4.91-3.11c3.52-1.64,7.42-2.36,11.28-2.32c3.86,0.05,7.72,0.86,11.26,2.45c3.53,1.59,6.76,4.01,9.07,7.21
			c2.33,3.18,3.55,7.13,3.66,11.04c0.13,3.93-0.78,7.82-2.37,11.36c-1.59,3.55-3.91,6.76-6.69,9.45c-2.78,2.7-5.99,4.9-9.38,6.7
			c-3.4,1.79-6.97,3.24-10.64,4.28c-7.31,2.21-14.92,3.32-22.53,3.6c-15.26,0.51-30.33-2.11-45.1-5.11
			c-7.4-1.5-14.76-3.08-22.17-4.41c-7.41-1.36-14.86-2.5-22.33-3.44c-14.95-1.83-30.01-2.84-45.06-2.76
			c-7.53,0.07-15.05,0.43-22.54,1.11c-3.74,0.33-7.49,0.75-11.24,1.15c-3.75,0.4-7.49,0.82-11.23,1.27
			c-7.48,0.91-14.93,1.98-22.31,3.4c-7.37,1.47-14.68,3.28-21.73,5.85c-14.11,4.98-27.25,13.23-36.81,24.85
			c-0.15,0.18-0.41,0.21-0.6,0.06C525.73,197.45,525.7,197.18,525.85,197z"/>
	</g>
</g>
</svg>
