<?xml version="1.0" standalone="no"?>
<!DOCTYPE svg PUBLIC "-//W3C//DTD SVG 20010904//EN"
 "http://www.w3.org/TR/2001/REC-SVG-20010904/DTD/svg10.dtd">
<svg version="1.0" xmlns="http://www.w3.org/2000/svg"
 width="512.000000pt" height="512.000000pt" viewBox="0 0 512.000000 512.000000"
 preserveAspectRatio="xMidYMid meet">
<metadata>
Created by potrace 1.14, written by Peter Selinger 2001-2017
</metadata>
<g transform="translate(0.000000,512.000000) scale(0.100000,-0.100000)"
fill="#000000" stroke="none">
<path d="M3990 3741 c0 -6 4 -13 10 -16 6 -3 7 1 4 9 -7 18 -14 21 -14 7z"/>
<path d="M4044 3722 c3 -5 0 -13 -6 -15 -9 -4 -10 -6 -1 -6 17 -1 25 16 12 25
-7 4 -9 3 -5 -4z"/>
<path d="M4215 3700 c-3 -5 1 -10 10 -10 9 0 13 5 10 10 -3 6 -8 10 -10 10 -2
0 -7 -4 -10 -10z"/>
<path d="M4516 3527 c3 -10 9 -15 12 -12 3 3 0 11 -7 18 -10 9 -11 8 -5 -6z"/>
<path d="M3816 2395 c-9 -13 -16 -30 -16 -38 0 -20 -9 -25 -30 -20 -11 3 -17
10 -13 16 4 6 1 7 -6 2 -7 -4 -11 -16 -8 -26 3 -11 1 -19 -5 -19 -5 0 -7 -4
-4 -9 3 -4 -6 -23 -19 -41 -14 -19 -25 -30 -25 -24 0 5 -5 1 -11 -9 -6 -9 -14
-15 -20 -12 -5 4 -6 -2 -2 -11 4 -12 3 -15 -5 -10 -7 4 -12 3 -12 -3 0 -6 -7
-7 -17 -4 -10 4 -14 2 -10 -4 4 -6 2 -13 -5 -15 -8 -3 -4 -12 10 -26 19 -19
25 -20 42 -10 42 27 190 235 190 268 0 21 -19 18 -34 -5z"/>
<path d="M3999 2386 c-12 -6 -40 -40 -61 -76 -65 -107 -133 -193 -182 -229
-53 -40 -60 -68 -18 -73 19 -2 28 -9 30 -25 2 -13 7 -23 12 -23 5 0 7 -19 4
-42 -15 -168 -24 -229 -38 -267 -11 -30 -13 -48 -6 -55 5 -5 13 -7 16 -3 13
13 44 165 55 272 7 61 20 129 30 153 l19 44 32 -20 c18 -11 54 -22 79 -24 l46
-5 -2 31 c-2 41 -14 76 -26 76 -6 0 -8 4 -5 8 3 5 -10 21 -28 37 l-33 29 30
48 c32 52 68 80 75 60 3 -9 9 -9 24 -1 17 9 18 13 7 20 -10 6 -11 9 -1 9 19 0
14 21 -12 45 -21 19 -28 21 -47 11z"/>
<path d="M4648 2300 c3 -33 -1 -44 -26 -67 -16 -16 -44 -37 -63 -49 -26 -15
-34 -26 -32 -46 1 -21 -2 -25 -18 -21 -11 3 -19 0 -19 -6 0 -7 5 -9 11 -5 7 4
10 -1 7 -12 -2 -11 -8 -19 -13 -19 -11 -1 -72 -37 -92 -54 -7 -6 -10 -18 -7
-26 4 -8 -1 -17 -10 -21 -9 -3 -16 -12 -16 -19 0 -8 -7 -21 -16 -29 -8 -9 -12
-20 -9 -26 3 -5 1 -10 -6 -10 -10 0 -10 -3 -1 -12 9 -9 8 -15 -3 -28 -8 -9
-17 -34 -18 -56 -2 -21 -8 -50 -14 -64 -6 -14 -14 -41 -18 -60 -10 -47 -46
-94 -58 -78 -6 9 -7 7 -3 -5 4 -12 -5 -29 -28 -51 -18 -19 -36 -46 -38 -60 -6
-32 7 -35 16 -3 8 30 104 131 141 150 17 8 43 17 59 21 58 14 199 131 229 191
42 83 57 167 60 327 1 97 -2 161 -8 167 -7 7 -9 -2 -7 -29z m-148 -257 c-1
-18 -19 -35 -29 -28 -9 5 -7 11 6 21 21 16 23 16 23 7z"/>
<path d="M3634 2281 c4 -5 1 -12 -4 -14 -6 -3 -5 -4 2 -3 15 3 23 26 8 26 -6
0 -9 -4 -6 -9z"/>
<path d="M3447 2105 c-5 -30 18 -65 43 -65 19 0 36 16 23 22 -5 1 -20 17 -34
35 l-27 32 -5 -24z"/>
<path d="M3627 2001 c-71 -29 -77 -41 -18 -41 39 0 83 28 87 54 1 9 2 16 1 15
-1 0 -33 -12 -70 -28z"/>
<path d="M460 1895 c0 -16 16 -20 24 -6 3 5 -1 11 -9 15 -9 3 -15 0 -15 -9z"/>
<path d="M420 1850 c0 -5 5 -10 10 -10 6 0 10 5 10 10 0 6 -4 10 -10 10 -5 0
-10 -4 -10 -10z"/>
<path d="M4094 1803 c4 -16 14 -53 24 -83 l17 -55 3 49 c2 27 -1 52 -7 55 -5
3 -13 19 -16 34 -4 15 -12 27 -17 27 -6 0 -7 -11 -4 -27z"/>
<path d="M4042 1783 c-34 -39 -39 -53 -21 -53 6 0 -6 -15 -25 -34 -41 -38 -66
-91 -66 -139 0 -28 6 -38 41 -60 22 -15 46 -27 51 -27 22 0 76 50 97 90 26 50
26 56 1 112 -11 25 -26 68 -33 97 l-13 51 -32 -37z"/>
<path d="M560 1771 c0 -5 5 -13 10 -16 6 -3 10 -2 10 4 0 5 -4 13 -10 16 -5 3
-10 2 -10 -4z"/>
<path d="M830 1619 c0 -5 5 -7 10 -4 6 3 10 8 10 11 0 2 -4 4 -10 4 -5 0 -10
-5 -10 -11z"/>
<path d="M3456 1554 c-21 -21 -20 -27 9 -62 14 -17 25 -35 25 -41 0 -12 39
-15 56 -3 19 13 22 36 6 55 -15 16 -14 17 3 11 33 -13 6 15 -35 36 -47 24 -45
24 -64 4z"/>
<path d="M3696 1514 c-16 -51 -15 -74 4 -74 11 0 30 57 30 91 0 48 -16 40 -34
-17z"/>
<path d="M700 1550 c0 -5 5 -10 11 -10 5 0 7 5 4 10 -3 6 -8 10 -11 10 -2 0
-4 -4 -4 -10z"/>
<path d="M210 1540 c0 -5 5 -10 11 -10 5 0 7 5 4 10 -3 6 -8 10 -11 10 -2 0
-4 -4 -4 -10z"/>
<path d="M4511 1528 c-1 -11 -14 -18 -41 -23 -21 -4 -43 -4 -48 -1 -14 9 -32
-9 -23 -23 7 -11 15 -11 41 -2 40 13 60 14 60 2 0 -5 -17 -12 -37 -15 -62 -11
-72 -16 -67 -31 10 -26 -5 -34 -44 -22 -20 6 -41 17 -45 24 -12 19 -26 16 -48
-9 -25 -31 -24 -40 9 -69 64 -59 79 -64 202 -64 140 0 150 4 263 119 l82 83
-75 15 c-71 15 -77 14 -112 -3 -20 -10 -56 -21 -80 -24 -41 -5 -40 -5 12 10
68 20 91 39 38 32 -25 -3 -38 -1 -38 7 0 6 -5 3 -11 -6 -5 -10 -14 -18 -19
-18 -5 0 -11 8 -13 18 -4 15 -5 15 -6 0z"/>
<path d="M3945 1464 c10 -54 16 -60 31 -33 18 33 18 34 -12 54 l-27 17 8 -38z"/>
<path d="M4099 1464 c-67 -55 -68 -57 -12 -32 30 14 54 31 57 43 8 30 2 28
-45 -11z"/>
<path d="M696 1465 c-4 -11 -1 -22 6 -27 29 -18 37 -4 15 26 -13 18 -14 18
-21 1z"/>
<path d="M630 1429 c0 -5 5 -7 10 -4 6 3 10 8 10 11 0 2 -4 4 -10 4 -5 0 -10
-5 -10 -11z"/>
<path d="M665 1410 c3 -5 8 -10 11 -10 2 0 4 5 4 10 0 6 -5 10 -11 10 -5 0 -7
-4 -4 -10z"/>
<path d="M710 1405 c0 -8 5 -15 10 -15 6 0 10 7 10 15 0 8 -4 15 -10 15 -5 0
-10 -7 -10 -15z"/>
<path d="M3232 1378 c-25 -13 -41 -27 -38 -35 3 -7 -1 -30 -9 -52 -12 -35 -12
-40 2 -45 30 -12 63 -5 90 18 26 23 26 25 5 19 -18 -4 -21 -2 -16 11 3 9 10
16 15 16 5 0 14 10 19 23 5 12 9 16 9 10 1 -18 30 -16 37 2 4 9 19 15 36 15
16 0 36 6 43 14 12 12 11 14 -8 15 -12 1 -49 3 -82 6 -48 4 -68 0 -103 -17z"/>
<path d="M3727 1349 c-13 -8 -15 -14 -8 -23 9 -10 5 -13 -16 -12 -19 1 -29 -5
-31 -18 -2 -11 0 -16 6 -12 6 3 13 2 16 -3 3 -4 16 -8 28 -8 20 0 23 5 25 43
1 24 1 44 0 44 -1 0 -10 -5 -20 -11z"/>
<path d="M3323 1298 c-1 -11 3 -18 10 -15 17 5 21 34 4 34 -7 0 -14 -9 -14
-19z"/>
<path d="M3877 1240 c-3 -14 -8 -38 -11 -55 -3 -16 -8 -41 -11 -55 -6 -22 -5
-23 5 -7 7 12 18 16 31 12 17 -6 19 -1 19 32 -1 21 -7 52 -14 68 l-13 30 -6
-25z"/>
<path d="M3976 1205 c4 -10 0 -15 -14 -15 -28 0 -55 -60 -43 -92 6 -12 10 -16
10 -8 1 9 7 6 18 -10 10 -14 16 -29 15 -35 -7 -20 50 41 76 82 15 24 31 43 35
43 9 0 1 -17 -20 -42 -21 -24 -1 -30 37 -11 60 29 110 28 170 -4 30 -17 60
-28 67 -26 7 3 -17 20 -52 38 -36 19 -71 32 -80 29 -8 -4 -15 -2 -15 3 0 23
-89 53 -91 30 0 -7 -4 -2 -9 11 -8 19 -17 22 -59 22 -41 0 -49 -3 -45 -15z
m-4 -50 c-3 -20 -7 -23 -18 -14 -16 13 -19 23 -5 15 5 -3 11 1 15 9 9 24 14
18 8 -10z"/>
<path d="M4135 1117 l-39 -12 51 -38 c50 -36 95 -47 109 -26 3 6 1 16 -6 22
-10 9 -11 9 -5 -2 5 -9 4 -12 -3 -7 -17 10 -15 16 8 24 19 7 16 10 -20 30 -47
25 -42 24 -95 9z"/>
<path d="M4010 1065 c-23 -24 -23 -25 -3 -25 12 0 23 -8 26 -20 5 -18 11 -20
46 -16 51 6 61 12 61 37 0 13 -12 25 -35 35 -48 20 -68 18 -95 -11z"/>
<path d="M4156 1025 c4 -8 11 -15 16 -15 6 0 5 6 -2 15 -7 8 -14 15 -16 15 -2
0 -1 -7 2 -15z"/>
<path d="M3835 956 c-22 -21 -32 -36 -26 -41 18 -10 45 3 79 38 32 33 32 33 8
35 -15 1 -38 -11 -61 -32z"/>
<path d="M3431 946 c-7 -8 -28 -14 -47 -13 -21 1 -39 -5 -45 -13 -13 -23 -11
-29 10 -23 19 5 38 -13 27 -24 -8 -9 -86 -10 -86 -1 0 3 -9 4 -20 1 -13 -3
-20 0 -20 8 0 11 -2 11 -10 -1 -7 -11 -10 -11 -10 -2 0 10 -3 10 -13 0 -14
-13 -19 -41 -6 -33 15 10 17 -25 2 -40 -14 -15 -14 -17 3 -30 40 -29 164 -30
209 -1 23 15 59 12 83 -7 6 -5 12 -28 12 -51 0 -48 -35 -181 -56 -213 -8 -13
-12 -23 -9 -23 3 0 -12 -33 -32 -72 -48 -93 -46 -88 -36 -88 14 0 91 143 118
219 14 37 30 103 38 146 10 58 18 81 32 89 11 6 31 19 44 29 13 9 36 17 50 17
26 0 51 16 51 31 0 4 -12 4 -28 0 -36 -11 -89 -4 -129 17 -32 16 -52 42 -33
42 6 0 10 9 10 20 0 24 -9 25 -35 6 -14 -10 -25 -11 -42 -3 -12 5 -20 14 -17
18 8 14 -3 10 -15 -5z m19 -76 c0 -5 -5 -10 -11 -10 -5 0 -7 5 -4 10 3 6 8 10
11 10 2 0 4 -4 4 -10z"/>
<path d="M2761 852 c-1 -19 48 -131 72 -164 11 -15 35 -37 52 -46 42 -25 126
-45 137 -34 6 6 26 -1 53 -19 24 -16 51 -29 61 -28 12 0 6 6 -16 16 -41 17
-80 51 -80 69 0 7 -9 15 -19 19 -11 3 -23 15 -26 26 -4 10 -11 19 -16 19 -5 0
-9 6 -10 13 0 19 -54 57 -83 59 -15 1 -28 10 -32 20 -3 10 -22 22 -44 28 -21
6 -41 16 -43 23 -4 9 -6 9 -6 -1z"/>
<path d="M3182 720 l-22 -29 -27 25 c-36 33 -43 30 -43 -16 0 -27 -5 -43 -15
-46 -23 -9 -18 -24 9 -24 13 0 29 -6 35 -14 7 -8 32 -21 57 -30 l44 -15 0 33
c0 18 -6 41 -14 52 -13 17 -11 22 22 57 l36 37 -29 -1 c-21 0 -37 -9 -53 -29z"/>
<path d="M2868 497 l-50 -28 39 -21 c65 -35 93 -40 145 -22 42 14 98 61 98 84
0 19 -33 18 -53 -1 l-22 -20 -3 21 c-3 18 -9 20 -54 18 -34 -2 -68 -13 -100
-31z"/>
<path d="M3163 414 c-32 -30 -51 -54 -43 -53 8 1 23 -1 33 -5 9 -5 25 -5 35
-1 9 5 25 7 34 6 27 -3 58 35 58 72 0 31 -3 34 -30 35 -22 0 -43 -12 -87 -54z"/>
</g>
</svg>
